<svg xmlns="http://www.w3.org/2000/svg" width="800" height="660" viewBox="0 0 800 660"><rect width="800" height="660" fill="#eef1f8"/><g transform="translate(40,27)" fill="#f7f8fc" stroke="#2b3a67" stroke-width="1.6" vector-effect="non-scaling-stroke"><rect x="0" y="0" width="120" height="60" rx="3"/></g><text x="100" y="118" font-family="Segoe UI" font-size="12" fill="#2b3a67" text-anchor="middle">Process</text><g transform="translate(240,30)" fill="#f7f8fc" stroke="#2b3a67" stroke-width="1.6" vector-effect="non-scaling-stroke"><rect x="0" y="0" width="120" height="54" rx="27"/></g><text x="300" y="118" font-family="Segoe UI" font-size="12" fill="#2b3a67" text-anchor="middle">Terminal</text><g transform="translate(460,22)" fill="#f7f8fc" stroke="#2b3a67" stroke-width="1.6" vector-effect="non-scaling-stroke"><polygon points="40,0 80,35 40,70 0,35"/></g><text x="500" y="118" font-family="Segoe UI" font-size="12" fill="#2b3a67" text-anchor="middle">Decision</text><g transform="translate(640,27)" fill="#f7f8fc" stroke="#2b3a67" stroke-width="1.6" vector-effect="non-scaling-stroke"><polygon points="0,16.8 120,0 120,60 0,60"/></g><text x="700" y="118" font-family="Segoe UI" font-size="12" fill="#2b3a67" text-anchor="middle">Manual Input</text><g transform="translate(40,157)" fill="#f7f8fc" stroke="#2b3a67" stroke-width="1.6" vector-effect="non-scaling-stroke"><polygon points="21.6,0 120,0 98.4,60 0,60"/></g><text x="100" y="248" font-family="Segoe UI" font-size="12" fill="#2b3a67" text-anchor="middle">Input</text><g transform="translate(240,157)" fill="#f7f8fc" stroke="#2b3a67" stroke-width="1.6" vector-effect="non-scaling-stroke"><rect x="0" y="0" width="120" height="60"/><path d="M12 0 V60" fill="none"/><path d="M108 0 V60" fill="none"/></g><text x="300" y="248" font-family="Segoe UI" font-size="12" fill="#2b3a67" text-anchor="middle">Predefined Process</text><g transform="translate(440,157)" fill="#f7f8fc" stroke="#2b3a67" stroke-width="1.6" vector-effect="non-scaling-stroke"><path d="M0 8.4 Q0 0 60 0 Q120 0 120 8.4 V51.6 Q120 60 60 60 Q0 60 0 51.6 Z M0 8.4 Q0 16.8 60 16.8 Q120 16.8 120 8.4"/></g><text x="500" y="248" font-family="Segoe UI" font-size="12" fill="#2b3a67" text-anchor="middle">Database</text><g transform="translate(640,157)" fill="#f7f8fc" stroke="#2b3a67" stroke-width="1.6" vector-effect="non-scaling-stroke"><polygon points="0,0 120,0 96,60 24,60"/></g><text x="700" y="248" font-family="Segoe UI" font-size="12" fill="#2b3a67" text-anchor="middle">Manual Operation</text><g transform="translate(40,287)" fill="#f7f8fc" stroke="#2b3a67" stroke-width="1.6" vector-effect="non-scaling-stroke"><path d="M0 0 H120 V51.6 C86.4 61.2 33.6 42 0 51.6 Z"/></g><text x="100" y="378" font-family="Segoe UI" font-size="12" fill="#2b3a67" text-anchor="middle">Document</text><g transform="translate(240,287)" fill="#f7f8fc" stroke="#2b3a67" stroke-width="1.6" vector-effect="non-scaling-stroke"><path d="M21.6 0 H120 V40.248 C92.448 47.736 49.152 32.76 21.6 40.248 Z"/><path d="M10.8 6.6 H109.2 V46.848 C81.648 54.336 38.352 39.36 10.8 46.848 Z"/><path d="M0 13.2 H98.4 V53.448 C70.848 60.936 27.552 45.96 0 53.448 Z"/></g><text x="300" y="378" font-family="Segoe UI" font-size="12" fill="#2b3a67" text-anchor="middle">Multidocument</text><g transform="translate(440,287)" fill="#f7f8fc" stroke="#2b3a67" stroke-width="1.6" vector-effect="non-scaling-stroke"><path d="M0 0 H72 Q120 0 120 30 Q120 60 72 60 H0 Z"/></g><text x="500" y="378" font-family="Segoe UI" font-size="12" fill="#2b3a67" text-anchor="middle">Delay</text><g transform="translate(673,290)" fill="#f7f8fc" stroke="#2b3a67" stroke-width="1.6" vector-effect="non-scaling-stroke"><circle cx="27" cy="27" r="27"/></g><text x="700" y="378" font-family="Segoe UI" font-size="12" fill="#2b3a67" text-anchor="middle">On-page Reference</text><g transform="translate(40,417)" fill="#f7f8fc" stroke="#2b3a67" stroke-width="1.6" vector-effect="non-scaling-stroke"><rect x="0" y="0" width="120" height="60" rx="10"/></g><text x="100" y="508" font-family="Segoe UI" font-size="12" fill="#2b3a67" text-anchor="middle">Alternate Process</text><g transform="translate(240,417)" fill="#f7f8fc" stroke="#2b3a67" stroke-width="1.6" vector-effect="non-scaling-stroke"><polygon points="21.6,0 120,0 98.4,60 0,60"/></g><text x="300" y="508" font-family="Segoe UI" font-size="12" fill="#2b3a67" text-anchor="middle">Data</text><g transform="translate(460,412)" fill="#f7f8fc" stroke="#2b3a67" stroke-width="1.6" vector-effect="non-scaling-stroke"><polygon points="0,0 80,0 40,70"/></g><text x="500" y="508" font-family="Segoe UI" font-size="12" fill="#2b3a67" text-anchor="middle">Merge</text><g transform="translate(640,417)" fill="#f7f8fc" stroke="#2b3a67" stroke-width="1.6" vector-effect="non-scaling-stroke"><polygon points="24,0 96,0 120,30 96,60 24,60 0,30"/></g><text x="700" y="508" font-family="Segoe UI" font-size="12" fill="#2b3a67" text-anchor="middle">Preparation</text><g transform="translate(65,537)" fill="#f7f8fc" stroke="#2b3a67" stroke-width="1.6" vector-effect="non-scaling-stroke"><polygon points="0,0 70,0 70,49.6 35,80 0,49.6"/></g><text x="100" y="638" font-family="Segoe UI" font-size="12" fill="#2b3a67" text-anchor="middle">Off-page Reference</text></svg>
